<svg xmlns="http://www.w3.org/2000/svg" width="54" height="54" viewBox="0 0 54 54" fill="none">
<path fill-rule="evenodd" clip-rule="evenodd" d="M32.9231 25.0711C39.8995 26.2333 44.1902 23.6337 45.7951 17.2725C46.7185 11.7039 43.1912 7.25036 35.2132 3.91188C31.5828 2.71277 30.6032 4.09388 32.2741 8.05521C33.9451 12.0165 32.6078 16.2606 28.2623 20.7875L32.9231 25.0711Z" fill="#E6E5E4"/>
<path fill-rule="evenodd" clip-rule="evenodd" d="M24.5631 20.3682C25.9506 13.4331 23.4914 9.0605 17.1854 7.25041C11.6497 6.14721 7.08422 9.52845 3.48913 17.3942C2.17308 20.9838 3.52174 22.0076 7.53511 20.4658C11.5485 18.924 15.747 20.398 20.1308 24.8879L24.5631 20.3682Z" fill="#E6E5E4"/>
<path fill-rule="evenodd" clip-rule="evenodd" d="M20.635 28.4836C13.6586 27.3214 9.36789 29.9209 7.76297 36.2822C6.83961 41.8508 10.3669 46.3043 18.3449 49.6428C21.9753 50.8419 22.9549 49.4608 21.284 45.4995C19.613 41.5381 20.9503 37.2941 25.2958 32.7672L20.635 28.4836Z" fill="#E6E5E4"/>
<path fill-rule="evenodd" clip-rule="evenodd" d="M28.9936 33.1835C27.6061 40.1187 30.0653 44.4913 36.3712 46.3013C41.907 47.4046 46.4724 44.0233 50.0675 36.1576C51.3836 32.568 50.0349 31.5441 46.0215 33.0859C42.0082 34.6278 37.8096 33.1537 33.4259 28.6639L28.9936 33.1835Z" fill="#E6E5E4"/>
<path d="M27 36C22.0294 36 18 31.9706 18 27C18 22.0294 22.0294 18 27 18C31.9706 18 36 22.0294 36 27C36 31.9706 31.9706 36 27 36Z" fill="#484848"/>
<path d="M27 23C24.7909 23 23 24.7909 23 27C23 29.2091 24.7909 31 27 31C29.2091 31 31 29.2091 31 27C31 24.7909 29.2091 23 27 23Z" fill="#E6E5E4"/>
</svg>