<svg xmlns="http://www.w3.org/2000/svg" width="112" height="88" viewBox="0 0 112 88" fill="none">
<path d="M82 55H30V88H82V55Z" fill="#D9D9D9"/>
<mask id="mask0_573_858" style="mask-type:alpha" maskUnits="userSpaceOnUse" x="30" y="55" width="52" height="33">
<path d="M82 55H30V88H82V55Z" fill="#D9D9D9"/>
</mask>
<g mask="url(#mask0_573_858)">
<g filter="url(#filter0_f_573_858)">
<path d="M56 81C79.7482 81 99 61.7482 99 38C99 14.2518 79.7482 -5 56 -5C32.2518 -5 13 14.2518 13 38C13 61.7482 32.2518 81 56 81Z" fill="black" fill-opacity="0.22"/>
</g>
</g>
<path d="M88 83C88 82.4477 87.5523 82 87 82H25C24.4477 82 24 82.4477 24 83V88H88V83Z" fill="#484848"/>
<path d="M105 5H52V27H105V5Z" fill="url(#paint0_linear_573_858)"/>
<path d="M112 29.0455L112 2.95455C112 2.42736 110.433 2 108.5 2C106.567 2 105 2.42736 105 2.95455L105 29.0455C105 29.5726 106.567 30 108.5 30C110.433 30 112 29.5726 112 29.0455Z" fill="#666666"/>
<path d="M7 35H60V57H7V35Z" fill="url(#paint1_linear_573_858)"/>
<path d="M1.18219e-06 59.0455L4.17245e-08 32.9545C1.86807e-08 32.4274 1.567 32 3.5 32C5.433 32 7 32.4274 7 32.9545L7 59.0455C7 59.5726 5.433 60 3.5 60C1.567 60 1.20524e-06 59.5726 1.18219e-06 59.0455Z" fill="#666666"/>
<path d="M56 76C35.0132 76 18 58.9868 18 38C18 17.0132 35.0132 0 56 0C76.9868 0 94 17.0132 94 38C94 58.9868 76.9868 76 56 76Z" fill="#3F87ED"/>
<mask id="mask1_573_858" style="mask-type:alpha" maskUnits="userSpaceOnUse" x="28" y="10" width="56" height="56">
<path d="M56 66C40.536 66 28 53.464 28 38C28 22.536 40.536 10 56 10C71.464 10 84 22.536 84 38C84 53.464 71.464 66 56 66Z" fill="white"/>
</mask>
<g mask="url(#mask1_573_858)">
<path d="M56 66C40.536 66 28 53.464 28 38C28 22.536 40.536 10 56 10C71.464 10 84 22.536 84 38C84 53.464 71.464 66 56 66Z" fill="#2C2C2C"/>
</g>
<mask id="mask2_573_858" style="mask-type:alpha" maskUnits="userSpaceOnUse" x="47" y="29" width="19" height="19">
<path d="M56.3073 47.778C51.2093 47.778 47.0765 43.6452 47.0765 38.5472C47.0765 33.4492 51.2093 29.3164 56.3073 29.3164C61.4053 29.3164 65.5381 33.4492 65.5381 38.5472C65.5381 43.6452 61.4053 47.778 56.3073 47.778Z" fill="white"/>
</mask>
<g mask="url(#mask2_573_858)">
</g>
<path d="M55.6797 6C54.8513 6 54.1797 5.32843 54.1797 4.5C54.1797 3.67157 54.8513 3 55.6797 3C56.5081 3 57.1797 3.67157 57.1797 4.5C57.1797 5.32843 56.5081 6 55.6797 6Z" fill="#E6E5E4"/>
<path d="M22.8584 38.8945C22.03 38.8945 21.3584 38.223 21.3584 37.3945C21.3584 36.5661 22.03 35.8945 22.8584 35.8945C23.6868 35.8945 24.3584 36.5661 24.3584 37.3945C24.3584 38.223 23.6868 38.8945 22.8584 38.8945Z" fill="#E6E5E4"/>
<path d="M88.5 38.8945C87.6716 38.8945 87 38.223 87 37.3945C87 36.5661 87.6716 35.8945 88.5 35.8945C89.3284 35.8945 90 36.5661 90 37.3945C90 38.223 89.3284 38.8945 88.5 38.8945Z" fill="#E6E5E4"/>
<path d="M84.3975 23.4209C83.569 23.4209 82.8975 22.7493 82.8975 21.9209C82.8975 21.0925 83.569 20.4209 84.3975 20.4209C85.2259 20.4209 85.8975 21.0925 85.8975 21.9209C85.8975 22.7493 85.2259 23.4209 84.3975 23.4209Z" fill="#E6E5E4"/>
<path d="M26.9619 23.4209C26.1335 23.4209 25.4619 22.7493 25.4619 21.9209C25.4619 21.0925 26.1335 20.4209 26.9619 20.4209C27.7903 20.4209 28.4619 21.0925 28.4619 21.9209C28.4619 22.7493 27.7903 23.4209 26.9619 23.4209Z" fill="#E6E5E4"/>
<path d="M85.3975 55.3174C84.569 55.3174 83.8975 54.6458 83.8975 53.8174C83.8975 52.989 84.569 52.3174 85.3975 52.3174C86.2259 52.3174 86.8975 52.989 86.8975 53.8174C86.8975 54.6458 86.2259 55.3174 85.3975 55.3174Z" fill="#E6E5E4"/>
<path d="M26.9619 54.3174C26.1335 54.3174 25.4619 53.6458 25.4619 52.8174C25.4619 51.989 26.1335 51.3174 26.9619 51.3174C27.7903 51.3174 28.4619 51.989 28.4619 52.8174C28.4619 53.6458 27.7903 54.3174 26.9619 54.3174Z" fill="#E6E5E4"/>
<path d="M72.6025 10.627C71.7741 10.627 71.1025 9.95538 71.1025 9.12695C71.1025 8.29853 71.7741 7.62695 72.6025 7.62695C73.431 7.62695 74.1025 8.29853 74.1025 9.12695C74.1025 9.95538 73.431 10.627 72.6025 10.627Z" fill="#E6E5E4"/>
<path d="M38.7559 11.6523C37.9274 11.6523 37.2559 10.9808 37.2559 10.1523C37.2559 9.32392 37.9274 8.65234 38.7559 8.65234C39.5843 8.65234 40.2559 9.32392 40.2559 10.1523C40.2559 10.9808 39.5843 11.6523 38.7559 11.6523Z" fill="#E6E5E4"/>
<path d="M72.6025 67.1641C71.7741 67.1641 71.1025 66.4925 71.1025 65.6641C71.1025 64.8356 71.7741 64.1641 72.6025 64.1641C73.431 64.1641 74.1025 64.8356 74.1025 65.6641C74.1025 66.4925 73.431 67.1641 72.6025 67.1641Z" fill="#E6E5E4"/>
<path d="M38.7559 67.1641C37.9274 67.1641 37.2559 66.4925 37.2559 65.6641C37.2559 64.8356 37.9274 64.1641 38.7559 64.1641C39.5843 64.1641 40.2559 64.8356 40.2559 65.6641C40.2559 66.4925 39.5843 67.1641 38.7559 67.1641Z" fill="#E6E5E4"/>
<path d="M55.6797 72.8164C54.8513 72.8164 54.1797 72.1448 54.1797 71.3164C54.1797 70.488 54.8513 69.8164 55.6797 69.8164C56.5081 69.8164 57.1797 70.488 57.1797 71.3164C57.1797 72.1448 56.5081 72.8164 55.6797 72.8164Z" fill="#E6E5E4"/>
<defs>
<filter id="filter0_f_573_858" x="7" y="-11" width="98" height="98" filterUnits="userSpaceOnUse" color-interpolation-filters="sRGB">
<feFlood flood-opacity="0" result="BackgroundImageFix"/>
<feBlend mode="normal" in="SourceGraphic" in2="BackgroundImageFix" result="shape"/>
<feGaussianBlur stdDeviation="3" result="effect1_foregroundBlur_573_858"/>
</filter>
<linearGradient id="paint0_linear_573_858" x1="83.5" y1="5" x2="84" y2="27" gradientUnits="userSpaceOnUse">
<stop stop-color="#DDDDDD"/>
<stop offset="0.302083" stop-color="#E6E6E6"/>
<stop offset="1" stop-color="#CCCCCC"/>
</linearGradient>
<linearGradient id="paint1_linear_573_858" x1="28.5" y1="35" x2="28" y2="57" gradientUnits="userSpaceOnUse">
<stop stop-color="#DDDDDD"/>
<stop offset="0.302083" stop-color="#E6E6E6"/>
<stop offset="1" stop-color="#CCCCCC"/>
</linearGradient>
</defs>
</svg>